<mxfile host="app.diagrams.net" modified="2023-11-23T15:03:15.013Z" agent="Mozilla/5.0 (Windows NT 10.0; Win64; x64) AppleWebKit/537.36 (KHTML, like Gecko) Chrome/118.0.0.0 Safari/537.36 OPR/104.0.0.0" etag="N0xU_6dmYQ-mxSUPGEfT" version="22.1.3" type="github">
  <diagram name="Seite-1" id="2ksi6uSdy5kiQGh3SICA">
    <mxGraphModel dx="1393" dy="758" grid="1" gridSize="10" guides="1" tooltips="1" connect="1" arrows="1" fold="1" page="1" pageScale="1" pageWidth="827" pageHeight="1169" math="0" shadow="0">
      <root>
        <mxCell id="0" />
        <mxCell id="1" parent="0" />
        <mxCell id="gsdCDpNhq8GDsU52w3LV-3" style="edgeStyle=orthogonalEdgeStyle;rounded=0;orthogonalLoop=1;jettySize=auto;html=1;exitX=0.5;exitY=1;exitDx=0;exitDy=0;" edge="1" parent="1" source="gsdCDpNhq8GDsU52w3LV-1" target="gsdCDpNhq8GDsU52w3LV-2">
          <mxGeometry relative="1" as="geometry" />
        </mxCell>
        <mxCell id="gsdCDpNhq8GDsU52w3LV-1" value="Art and Welcome" style="ellipse;whiteSpace=wrap;html=1;" vertex="1" parent="1">
          <mxGeometry x="354" y="20" width="120" height="80" as="geometry" />
        </mxCell>
        <mxCell id="gsdCDpNhq8GDsU52w3LV-4" style="edgeStyle=orthogonalEdgeStyle;rounded=0;orthogonalLoop=1;jettySize=auto;html=1;exitX=0;exitY=0.5;exitDx=0;exitDy=0;" edge="1" parent="1" source="gsdCDpNhq8GDsU52w3LV-2">
          <mxGeometry relative="1" as="geometry">
            <mxPoint x="270" y="180" as="targetPoint" />
          </mxGeometry>
        </mxCell>
        <mxCell id="gsdCDpNhq8GDsU52w3LV-2" value="Easy or hard?" style="rhombus;whiteSpace=wrap;html=1;" vertex="1" parent="1">
          <mxGeometry x="351" y="140" width="126" height="80" as="geometry" />
        </mxCell>
        <mxCell id="gsdCDpNhq8GDsU52w3LV-5" value="Easy" style="text;html=1;align=center;verticalAlign=middle;resizable=0;points=[];autosize=1;strokeColor=none;fillColor=none;" vertex="1" parent="1">
          <mxGeometry x="280" y="150" width="50" height="30" as="geometry" />
        </mxCell>
        <mxCell id="gsdCDpNhq8GDsU52w3LV-42" style="edgeStyle=orthogonalEdgeStyle;rounded=0;orthogonalLoop=1;jettySize=auto;html=1;exitX=0.5;exitY=1;exitDx=0;exitDy=0;entryX=0.5;entryY=0;entryDx=0;entryDy=0;" edge="1" parent="1" source="gsdCDpNhq8GDsU52w3LV-6" target="gsdCDpNhq8GDsU52w3LV-24">
          <mxGeometry relative="1" as="geometry" />
        </mxCell>
        <mxCell id="gsdCDpNhq8GDsU52w3LV-6" value="10 tries" style="rounded=1;whiteSpace=wrap;html=1;" vertex="1" parent="1">
          <mxGeometry x="150" y="150" width="120" height="60" as="geometry" />
        </mxCell>
        <mxCell id="gsdCDpNhq8GDsU52w3LV-43" style="edgeStyle=orthogonalEdgeStyle;rounded=0;orthogonalLoop=1;jettySize=auto;html=1;exitX=0.5;exitY=1;exitDx=0;exitDy=0;entryX=0.5;entryY=0;entryDx=0;entryDy=0;" edge="1" parent="1" source="gsdCDpNhq8GDsU52w3LV-7" target="gsdCDpNhq8GDsU52w3LV-24">
          <mxGeometry relative="1" as="geometry" />
        </mxCell>
        <mxCell id="gsdCDpNhq8GDsU52w3LV-7" value="4 tries" style="rounded=1;whiteSpace=wrap;html=1;" vertex="1" parent="1">
          <mxGeometry x="560" y="150" width="120" height="60" as="geometry" />
        </mxCell>
        <mxCell id="gsdCDpNhq8GDsU52w3LV-8" style="edgeStyle=orthogonalEdgeStyle;rounded=0;orthogonalLoop=1;jettySize=auto;html=1;exitX=1;exitY=0.5;exitDx=0;exitDy=0;entryX=-0.05;entryY=0.517;entryDx=0;entryDy=0;entryPerimeter=0;" edge="1" parent="1" source="gsdCDpNhq8GDsU52w3LV-2" target="gsdCDpNhq8GDsU52w3LV-7">
          <mxGeometry relative="1" as="geometry" />
        </mxCell>
        <mxCell id="gsdCDpNhq8GDsU52w3LV-9" value="Hard" style="text;html=1;align=center;verticalAlign=middle;resizable=0;points=[];autosize=1;strokeColor=none;fillColor=none;" vertex="1" parent="1">
          <mxGeometry x="490" y="150" width="50" height="30" as="geometry" />
        </mxCell>
        <mxCell id="gsdCDpNhq8GDsU52w3LV-19" style="edgeStyle=orthogonalEdgeStyle;rounded=0;orthogonalLoop=1;jettySize=auto;html=1;exitX=0.5;exitY=1;exitDx=0;exitDy=0;entryX=0.5;entryY=0;entryDx=0;entryDy=0;" edge="1" parent="1" source="gsdCDpNhq8GDsU52w3LV-11" target="gsdCDpNhq8GDsU52w3LV-22">
          <mxGeometry relative="1" as="geometry">
            <mxPoint x="418.5" y="420" as="targetPoint" />
          </mxGeometry>
        </mxCell>
        <mxCell id="gsdCDpNhq8GDsU52w3LV-39" style="edgeStyle=orthogonalEdgeStyle;rounded=0;orthogonalLoop=1;jettySize=auto;html=1;exitX=1;exitY=0.5;exitDx=0;exitDy=0;" edge="1" parent="1" source="gsdCDpNhq8GDsU52w3LV-11">
          <mxGeometry relative="1" as="geometry">
            <mxPoint x="600" y="360" as="targetPoint" />
          </mxGeometry>
        </mxCell>
        <mxCell id="gsdCDpNhq8GDsU52w3LV-11" value="Too high&lt;br&gt;too low&lt;br&gt;hit" style="rhombus;whiteSpace=wrap;html=1;" vertex="1" parent="1">
          <mxGeometry x="354" y="370" width="120" height="80" as="geometry" />
        </mxCell>
        <mxCell id="gsdCDpNhq8GDsU52w3LV-15" value="def" style="ellipse;whiteSpace=wrap;html=1;aspect=fixed;" vertex="1" parent="1">
          <mxGeometry x="444" y="380" width="30" height="30" as="geometry" />
        </mxCell>
        <mxCell id="gsdCDpNhq8GDsU52w3LV-28" style="edgeStyle=orthogonalEdgeStyle;rounded=0;orthogonalLoop=1;jettySize=auto;html=1;exitX=0.5;exitY=1;exitDx=0;exitDy=0;" edge="1" parent="1" source="gsdCDpNhq8GDsU52w3LV-22">
          <mxGeometry relative="1" as="geometry">
            <mxPoint x="417" y="560" as="targetPoint" />
          </mxGeometry>
        </mxCell>
        <mxCell id="gsdCDpNhq8GDsU52w3LV-22" value="Congrats!" style="rounded=1;whiteSpace=wrap;html=1;" vertex="1" parent="1">
          <mxGeometry x="355.5" y="480" width="114.5" height="60" as="geometry" />
        </mxCell>
        <mxCell id="gsdCDpNhq8GDsU52w3LV-38" style="edgeStyle=orthogonalEdgeStyle;rounded=0;orthogonalLoop=1;jettySize=auto;html=1;exitX=0.5;exitY=1;exitDx=0;exitDy=0;" edge="1" parent="1" source="gsdCDpNhq8GDsU52w3LV-24" target="gsdCDpNhq8GDsU52w3LV-11">
          <mxGeometry relative="1" as="geometry" />
        </mxCell>
        <mxCell id="gsdCDpNhq8GDsU52w3LV-24" value="Guess" style="rounded=1;whiteSpace=wrap;html=1;" vertex="1" parent="1">
          <mxGeometry x="354" y="280" width="120" height="60" as="geometry" />
        </mxCell>
        <mxCell id="gsdCDpNhq8GDsU52w3LV-31" style="edgeStyle=orthogonalEdgeStyle;rounded=0;orthogonalLoop=1;jettySize=auto;html=1;exitX=0;exitY=0.5;exitDx=0;exitDy=0;entryX=0;entryY=0.5;entryDx=0;entryDy=0;" edge="1" parent="1" source="gsdCDpNhq8GDsU52w3LV-30" target="gsdCDpNhq8GDsU52w3LV-1">
          <mxGeometry relative="1" as="geometry">
            <Array as="points">
              <mxPoint x="100" y="600" />
              <mxPoint x="100" y="60" />
            </Array>
          </mxGeometry>
        </mxCell>
        <mxCell id="gsdCDpNhq8GDsU52w3LV-35" style="edgeStyle=orthogonalEdgeStyle;rounded=0;orthogonalLoop=1;jettySize=auto;html=1;exitX=0.5;exitY=1;exitDx=0;exitDy=0;entryX=0.5;entryY=0;entryDx=0;entryDy=0;" edge="1" parent="1" source="gsdCDpNhq8GDsU52w3LV-30" target="gsdCDpNhq8GDsU52w3LV-34">
          <mxGeometry relative="1" as="geometry" />
        </mxCell>
        <mxCell id="gsdCDpNhq8GDsU52w3LV-30" value="Go Again?" style="rhombus;whiteSpace=wrap;html=1;" vertex="1" parent="1">
          <mxGeometry x="355.5" y="560" width="123" height="80" as="geometry" />
        </mxCell>
        <mxCell id="gsdCDpNhq8GDsU52w3LV-32" value="yes" style="text;html=1;align=center;verticalAlign=middle;resizable=0;points=[];autosize=1;strokeColor=none;fillColor=none;" vertex="1" parent="1">
          <mxGeometry x="200" y="568" width="40" height="30" as="geometry" />
        </mxCell>
        <mxCell id="gsdCDpNhq8GDsU52w3LV-34" value="Goodbye!" style="rounded=1;whiteSpace=wrap;html=1;" vertex="1" parent="1">
          <mxGeometry x="357" y="670" width="120" height="60" as="geometry" />
        </mxCell>
        <mxCell id="gsdCDpNhq8GDsU52w3LV-36" value="hit" style="text;html=1;align=center;verticalAlign=middle;resizable=0;points=[];autosize=1;strokeColor=none;fillColor=none;" vertex="1" parent="1">
          <mxGeometry x="410" y="438" width="40" height="30" as="geometry" />
        </mxCell>
        <mxCell id="gsdCDpNhq8GDsU52w3LV-41" style="edgeStyle=orthogonalEdgeStyle;rounded=0;orthogonalLoop=1;jettySize=auto;html=1;exitX=0.5;exitY=0;exitDx=0;exitDy=0;entryX=1;entryY=0.5;entryDx=0;entryDy=0;" edge="1" parent="1" source="gsdCDpNhq8GDsU52w3LV-40" target="gsdCDpNhq8GDsU52w3LV-24">
          <mxGeometry relative="1" as="geometry" />
        </mxCell>
        <mxCell id="gsdCDpNhq8GDsU52w3LV-40" value="tries -1" style="rounded=1;whiteSpace=wrap;html=1;" vertex="1" parent="1">
          <mxGeometry x="540" y="330" width="120" height="60" as="geometry" />
        </mxCell>
      </root>
    </mxGraphModel>
  </diagram>
</mxfile>
